<?xml version="1.0" encoding="utf-8"?>
<!-- Generator: Adobe Illustrator 16.0.0, SVG Export Plug-In . SVG Version: 6.00 Build 0)  -->
<!DOCTYPE svg PUBLIC "-//W3C//DTD SVG 1.1//EN" "http://www.w3.org/Graphics/SVG/1.1/DTD/svg11.dtd">
<svg version="1.1" id="图层_1" xmlns="http://www.w3.org/2000/svg" xmlns:xlink="http://www.w3.org/1999/xlink" x="0px" y="0px"
	 width="390px" height="386px" viewBox="0 0 390 386" enable-background="new 0 0 390 386" xml:space="preserve">
<g id="edges">
	<path fill="none" stroke="#999999" d="M184.666,152.307l-91.971-4.717"/>
	<path fill="none" stroke="#999999" d="M188.011,146.44l-49.145-74.121"/>
	<path fill="none" stroke="#999999" d="M194.055,159.947l25.862,98.816"/>
	<path fill="none" stroke="#999999" d="M169.037,60.027l-39.229,65.807"/>
	<path fill="none" stroke="#999999" d="M166.925,49.021l-5.093-3.905"/>
	<path fill="none" stroke="#999999" d="M175.31,46.49l6.362-18.552"/>
	<path fill="none" stroke="#999999" d="M210.896,169.408L175.216,60.71"/>
	<path fill="none" stroke="#999999" d="M205.926,174.859L92.515,148.88"/>
	<path fill="none" stroke="#999999" d="M220.652,175.417l39.049-5.883"/>
	<path fill="none" stroke="#999999" d="M216.816,183.124l9.193,16.916"/>
	<path fill="none" stroke="#999999" d="M206.594,180.018l-85.185,44.684"/>
	<path fill="none" stroke="#999999" d="M77.872,145.628l-45.394-9.762"/>
	<path fill="none" stroke="#999999" d="M92.688,147.696l58.636,3.843"/>
	<path fill="none" stroke="#999999" d="M85.525,154.698l1.177,27.428"/>
	<path fill="none" stroke="#999999" d="M87.776,154.25l24.419,66.891"/>
	<path fill="none" stroke="#999999" d="M90.374,152.639l32.688,34.354"/>
	<path fill="none" stroke="#999999" d="M92.007,144.048l82.443-38.258"/>
	<path fill="none" stroke="#999999" d="M138.867,72.319l49.145,74.121"/>
	<path fill="none" stroke="#999999" d="M127.947,69.286l-4.6,2.185"/>
	<path fill="none" stroke="#999999" d="M136.746,73.29l20.039,71.518"/>
	<path fill="none" stroke="#999999" d="M141.562,62.99l65.905-29.666"/>
	<path fill="none" stroke="#999999" d="M123.595,72.056l42.259-15.839"/>
	<path fill="none" stroke="#999999" d="M113.595,81.572l-25.413,58.75"/>
	<path fill="none" stroke="#999999" d="M123.347,71.471l4.6-2.185"/>
	<path fill="none" stroke="#999999" d="M120.167,81.271l35.047,64.177"/>
	<path fill="none" stroke="#999999" d="M175.836,255.45l14.495-7.486"/>
	<path fill="none" stroke="#999999" d="M174.845,253.984l49.075-42.448"/>
	<path fill="none" stroke="#999999" d="M267.391,160.922l3.348-92.396"/>
	<path fill="none" stroke="#999999" d="M260.73,172.35l-49.896,30.731"/>
	<path fill="none" stroke="#999999" d="M32.478,135.866l45.394,9.762"/>
	<path fill="none" stroke="#999999" d="M190.331,247.964l-14.495,7.486"/>
	<path fill="none" stroke="#999999" d="M202.077,239.007l59.959-65.074"/>
	<path fill="none" stroke="#999999" d="M194.133,237.589l-32.462-78.627"/>
	<path fill="none" stroke="#999999" d="M192.984,238.186l-63.006-99.571"/>
	<path fill="none" stroke="#999999" d="M199.381,251.632l13.912,41.461"/>
	<path fill="none" stroke="#999999" d="M355.762,98.049l-30.671,6.009"/>
	<path fill="none" stroke="#999999" d="M307.042,33.283l-30.09,23.171"/>
	<path fill="none" stroke="#999999" d="M166.307,152.178l18.351,0.364"/>
	<path fill="none" stroke="#999999" d="M152.381,148.164l-19.986-12.022"/>
	<path fill="none" stroke="#999999" d="M152.164,155.509L93.667,186.14"/>
	<path fill="none" stroke="#999999" d="M154.282,158.01l-21.523,28.437"/>
	<path fill="none" stroke="#999999" d="M126.951,124.84l6.788-51.336"/>
	<path fill="none" stroke="#999999" d="M124.761,124.874l-6.98-42.783"/>
	<path fill="none" stroke="#999999" d="M128.39,139.374l38.361,112.419"/>
	<path fill="none" stroke="#999999" d="M132.395,136.142l19.986,12.022"/>
	<path fill="none" stroke="#999999" d="M118.511,133.073l-59.074,6.315"/>
	<path fill="none" stroke="#999999" d="M121.754,138.48l-30.517,44.935"/>
	<path fill="none" stroke="#999999" d="M128.293,125.146l25.262-77.462"/>
	<path fill="none" stroke="#999999" d="M126.25,139.771l1.699,45.161"/>
	<path fill="none" stroke="#999999" d="M129.438,125.626l51.198-98.132"/>
	<path fill="none" stroke="#999999" d="M226.012,200.039l-9.193-16.916"/>
	<path fill="none" stroke="#999999" d="M223.652,202.048l-58.905-45.438"/>
	<path fill="none" stroke="#999999" d="M223.499,202.257l-91.437-65.609"/>
	<path fill="none" stroke="#999999" d="M236.768,208.813l51.506,15.668"/>
	<path fill="none" stroke="#999999" d="M59.437,139.388l59.074-6.315"/>
	<path fill="none" stroke="#999999" d="M148.852,241.997l40.032-82.558"/>
	<path fill="none" stroke="#999999" d="M153.054,248.131l36.466-2.995"/>
	<path fill="none" stroke="#999999" d="M140.302,243.416l-48-48.468"/>
	<path fill="none" stroke="#999999" d="M147.387,241.466l11.294-45.476"/>
	<path fill="none" stroke="#999999" d="M151.16,253.755l29.599,26.575"/>
	<path fill="none" stroke="#999999" d="M143.372,241.577l-12.932-41.981"/>
	<path fill="none" stroke="#999999" d="M277.916,35.016l-4.98,18.766"/>
	<path fill="none" stroke="#999999" d="M240.303,117.661l-42.082,30.617"/>
	<path fill="none" stroke="#999999" d="M240.544,108.521L178.7,58.312"/>
	<path fill="none" stroke="#999999" d="M242.889,119.894l-26.175,49.996"/>
	<path fill="none" stroke="#999999" d="M239.178,111.113L123.762,76.824"/>
	<path fill="none" stroke="#999999" d="M243.727,120.269l-44.092,117.233"/>
	<path fill="none" stroke="#999999" d="M238.958,114.419l-105.582,16.686"/>
	<path fill="none" stroke="#999999" d="M249.102,106.265l28.004-71.515"/>
	<path fill="none" stroke="#999999" d="M249.566,106.466l18.242-38.654"/>
	<path fill="none" stroke="#999999" d="M253.822,112.439l56.451-6.13"/>
	<path fill="none" stroke="#999999" d="M238.964,112.042l-50.308-8.203"/>
	<path fill="none" stroke="#999999" d="M89.725,182.623l42.296-109.558"/>
	<path fill="none" stroke="#999999" d="M93.667,186.14l58.497-30.631"/>
	<path fill="none" stroke="#999999" d="M91.237,183.415l30.517-44.935"/>
	<path fill="none" stroke="#999999" d="M94.506,190.129l26.243,1.788"/>
	<path fill="none" stroke="#999999" d="M207.467,33.324L141.562,62.99"/>
	<path fill="none" stroke="#999999" d="M221.801,29.962l50.545-1.912"/>
	<path fill="none" stroke="#999999" d="M220.896,33.824l43.521,23.628"/>
	<path fill="none" stroke="#999999" d="M207.145,28.016l-15.878-4.943"/>
	<path fill="none" stroke="#999999" d="M161.833,45.117l5.093,3.905"/>
	<path fill="none" stroke="#999999" d="M158.718,47.496l19.698,48.194"/>
	<path fill="none" stroke="#999999" d="M162.03,36.259l15.925-11.121"/>
	<path fill="none" stroke="#999999" d="M171.614,213.587l-11.278-54.215"/>
	<path fill="none" stroke="#999999" d="M180.412,219.088l41.908-10.617"/>
	<path fill="none" stroke="#999999" d="M166.81,216.911l-32.246-20.466"/>
	<path fill="none" stroke="#999999" d="M322.843,305.829l-18.356-18.453"/>
	<path fill="none" stroke="#999999" d="M213.293,293.093l-13.912-41.461"/>
	<path fill="none" stroke="#999999" d="M65.406,209.704l55.942-71.521"/>
	<path fill="none" stroke="#999999" d="M66.113,210.333l15.582-15.437"/>
	<path fill="none" stroke="#999999" d="M216.626,147.283l-17.147,3.79"/>
	<path fill="none" stroke="#999999" d="M216.484,146.395l-50.211,4.906"/>
	<path fill="none" stroke="#999999" d="M217.21,148.957l-82.239,40.177"/>
	<path fill="none" stroke="#999999" d="M221.678,152.813l-14.957,47.055"/>
	<path fill="none" stroke="#999999" d="M215.236,78.952l-51.844,67.142"/>
	<path fill="none" stroke="#999999" d="M213.479,77.02l-81.167,51.252"/>
	<path fill="none" stroke="#999999" d="M218.859,65.577l-3.594-27.894"/>
	<path fill="none" stroke="#999999" d="M220.245,80.503l3.278,57.674"/>
	<path fill="none" stroke="#999999" d="M227.122,71.306l36.585-8.566"/>
	<path fill="none" stroke="#999999" d="M86.424,268.661l24.042-34.332"/>
	<path fill="none" stroke="#999999" d="M296.956,274.9l-48.351-154.494"/>
	<path fill="none" stroke="#999999" d="M304.484,287.376l18.357,18.453"/>
	<path fill="none" stroke="#999999" d="M102.87,14.385l27.917,45.299"/>
	<path fill="none" stroke="#999999" d="M121.299,231.872l41.342,23.333"/>
	<path fill="none" stroke="#999999" d="M122.124,229.646l67.515,13.414"/>
	<path fill="none" stroke="#999999" d="M110.388,222.098l-18.984-26.39"/>
	<path fill="none" stroke="#999999" d="M118.137,221.484l92.798-184.54"/>
	<path fill="none" stroke="#999999" d="M107.463,226.484l-39.373-9.172"/>
	<path fill="none" stroke="#999999" d="M110.465,234.329l-24.042,34.332"/>
	<path fill="none" stroke="#999999" d="M119.609,222.458l92.557-109.514"/>
	<path fill="none" stroke="#999999" d="M108.325,224.348l-59.889-35.689"/>
	<path fill="none" stroke="#999999" d="M122.067,226.463l75.083-17.727"/>
	<path fill="none" stroke="#999999" d="M216.146,261.107l-13.482-11.676"/>
	<path fill="none" stroke="#999999" d="M219.697,258.823l-13.131-44.613"/>
	<path fill="none" stroke="#999999" d="M165.44,183.079l21.763-24.755"/>
	<path fill="none" stroke="#999999" d="M167.796,187.024l38.132-8.803"/>
	<path fill="none" stroke="#999999" d="M164.594,194.986l28.295,43.259"/>
	<path fill="none" stroke="#999999" d="M156.575,182.313l-26.693-43.639"/>
	<path fill="none" stroke="#999999" d="M153.642,185.649l-94.816-42.402"/>
	<path fill="none" stroke="#999999" d="M158.681,195.99l-11.294,45.476"/>
	<path fill="none" stroke="#999999" d="M152.989,188.804l-58.466,0.723"/>
	<path fill="none" stroke="#999999" d="M160.255,181.215l-4.142-133.166"/>
	<path fill="none" stroke="#999999" d="M154.812,193.611l-34.367,29.673"/>
	<path fill="none" stroke="#999999" d="M162.427,195.956l21.974,82.14"/>
	<path fill="none" stroke="#999999" d="M165.397,183.041l100.705-116.34"/>
	<path fill="none" stroke="#999999" d="M162.247,181.42l17.248-71.497"/>
	<path fill="none" stroke="#999999" d="M180.939,280.136l-88.516-85.312"/>
	<path fill="none" stroke="#999999" d="M193.835,285.122l97.862-2.847"/>
	<path fill="none" stroke="#999999" d="M192.925,281.753l22.306-12.147"/>
	<path fill="none" stroke="#999999" d="M270.738,68.525l-3.35,92.396"/>
	<path fill="none" stroke="#999999" d="M276.952,56.454l30.09-23.171"/>
	<path fill="none" stroke="#999999" d="M272.936,53.781l4.98-18.766"/>
	<path fill="none" stroke="#999999" d="M264.419,57.452l-43.521-23.628"/>
	<path fill="none" stroke="#999999" d="M264.202,57.882l-73.29-33.89"/>
	<path fill="none" stroke="#999999" d="M85.457,111.103l-27.815,24.164"/>
	<path fill="none" stroke="#999999" d="M90.751,113.675l-3.36,68.453"/>
	<path fill="none" stroke="#999999" d="M98.618,106.246l110.889,0.909"/>
	<path fill="none" stroke="#999999" d="M53.833,164.492l65.287-29.158"/>
	<path fill="none" stroke="#999999" d="M48.332,160.172l2.301-12.609"/>
	<path fill="none" stroke="#999999" d="M53.554,171.171l26.901,14.828"/>
	<path fill="none" stroke="#999999" d="M54.157,169.746l66.904,20.484"/>
	<path fill="none" stroke="#999999" d="M310.71,108.138l-111.534,41.915"/>
	<path fill="none" stroke="#999999" d="M325.091,104.058l30.671-6.009"/>
	<path fill="none" stroke="#999999" d="M209.775,109.207l-76.576,21.078"/>
	<path fill="none" stroke="#999999" d="M217.947,114.657l10.703,84.53"/>
	<path fill="none" stroke="#999999" d="M224.354,108.726l14.668,3.014"/>
	<path fill="none" stroke="#999999" d="M217.622,99.742l1.583-19.251"/>
	<path fill="none" stroke="#999999" d="M222.706,102.342l42.604-36.437"/>
	<path fill="none" stroke="#999999" d="M224.506,107.088l85.727-1.461"/>
	<path fill="none" stroke="#999999" d="M134.602,188.467l51.185-31.816"/>
	<path fill="none" stroke="#999999" d="M132.758,186.446l21.523-28.437"/>
	<path fill="none" stroke="#999999" d="M127.95,184.932l-1.699-45.161"/>
	<path fill="none" stroke="#999999" d="M120.749,191.917l-26.243-1.788"/>
	<path fill="none" stroke="#999999" d="M48.351,180.84l71.259-44.586"/>
	<path fill="none" stroke="#999999" d="M43.631,177.499l6.711-29.995"/>
	<path fill="none" stroke="#999999" d="M182.081,110.087l14.087,126.979"/>
	<path fill="none" stroke="#999999" d="M174.644,106.177l-42.065,22.555"/>
	<path fill="none" stroke="#999999" d="M188.656,103.839l50.308,8.203"/>
	<path fill="none" stroke="#999999" d="M178.416,95.69l-19.698-48.194"/>
	<path fill="none" stroke="#999999" d="M186.536,107.957l32.131,32.384"/>
	<path fill="none" stroke="#999999" d="M179.495,109.923l-17.248,71.497"/>
	<path fill="none" stroke="#999999" d="M188.058,99.479l76.147-35.294"/>
	<path fill="none" stroke="#999999" d="M173.759,102.928l-75.146,2.961"/>
	<path fill="none" stroke="#999999" d="M188.692,103.586l20.876,2.676"/>
	<path fill="none" stroke="#999999" d="M210.836,203.081l49.896-30.731"/>
	<path fill="none" stroke="#999999" d="M199.659,201.243l-36.06-43.443"/>
	<path fill="none" stroke="#999999" d="M199.018,201.843L131.4,137.448"/>
	<path fill="none" stroke="#999999" d="M197.083,205.604l-61.485-11.769"/>
	<path fill="none" stroke="#999999" d="M182.685,28.208l-22.456,116.457"/>
	<path fill="none" stroke="#999999" d="M191.266,23.073l15.878,4.943"/>
	<path fill="none" stroke="#999999" d="M177.955,25.138L162.03,36.259"/>
	<path fill="none" stroke="#999999" d="M262.348,190.395l-96.506-35.76"/>
	<path fill="none" stroke="#999999" d="M273.973,198.932l16.885,21.803"/>
	<path fill="none" stroke="#999999" d="M261.88,192.97l-126.148-0.513"/>
	<path fill="none" stroke="#999999" d="M270.65,185.609l5.855-34.079"/>
	<path fill="none" stroke="#999999" d="M270.3,143.555L133.445,132.86"/>
	<path fill="none" stroke="#999999" d="M270.279,144.352l-38.834,1.101"/>
	<path fill="none" stroke="#999999" d="M277.169,136.664l-5.551-68.158"/>
	<path fill="none" stroke="#999999" d="M276.507,151.53l-5.856,34.079"/>
</g>
<g id="arrows">
	<polyline fill="#999999" points="92.694,147.589 92.694,147.589 92.694,147.589 	"/>
	<polyline fill="#999999" points="138.867,72.319 138.867,72.319 138.867,72.319 	"/>
	<polyline fill="#999999" points="219.917,258.764 219.917,258.764 219.917,258.764 	"/>
	<polyline fill="#999999" points="129.809,125.833 129.809,125.833 129.809,125.833 	"/>
	<polyline fill="#999999" points="161.833,45.117 161.833,45.117 161.833,45.117 	"/>
	<polyline fill="#999999" points="181.672,27.938 181.672,27.938 181.672,27.938 	"/>
	<polyline fill="#999999" points="175.216,60.71 175.216,60.71 175.216,60.71 	"/>
	<polyline fill="#999999" points="92.515,148.88 92.515,148.88 92.515,148.88 	"/>
	<polyline fill="#999999" points="259.701,169.534 259.701,169.534 259.701,169.534 	"/>
	<polyline fill="#999999" points="226.012,200.039 226.012,200.039 226.012,200.039 	"/>
	<polyline fill="#999999" points="121.409,224.702 121.409,224.702 121.409,224.702 	"/>
	<polyline fill="#999999" points="32.478,135.866 32.478,135.866 32.478,135.866 	"/>
	<polyline fill="#999999" points="151.324,151.539 151.324,151.539 151.324,151.539 	"/>
	<polyline fill="#999999" points="86.702,182.126 86.702,182.126 86.702,182.126 	"/>
	<polyline fill="#999999" points="112.195,221.141 112.195,221.141 112.195,221.141 	"/>
	<polyline fill="#999999" points="123.062,186.993 123.062,186.993 123.062,186.993 	"/>
	<polyline fill="#999999" points="174.45,105.79 174.45,105.79 174.45,105.79 	"/>
	<polyline fill="#999999" points="188.011,146.44 188.011,146.44 188.011,146.44 	"/>
	<polyline fill="#999999" points="123.347,71.471 123.347,71.471 123.347,71.471 	"/>
	<polyline fill="#999999" points="156.785,144.808 156.785,144.808 156.785,144.808 	"/>
	<polyline fill="#999999" points="207.467,33.324 207.467,33.324 207.467,33.324 	"/>
	<polyline fill="#999999" points="165.854,56.217 165.854,56.217 165.854,56.217 	"/>
	<polyline fill="#999999" points="88.182,140.321 88.182,140.321 88.182,140.321 	"/>
	<polyline fill="#999999" points="127.947,69.286 127.947,69.286 127.947,69.286 	"/>
	<polyline fill="#999999" points="155.214,145.447 155.214,145.447 155.214,145.447 	"/>
	<polyline fill="#999999" points="190.331,247.964 190.331,247.964 190.331,247.964 	"/>
	<polyline fill="#999999" points="223.92,211.536 223.92,211.536 223.92,211.536 	"/>
	<polyline fill="#999999" points="270.738,68.525 270.738,68.525 270.738,68.525 	"/>
	<polyline fill="#999999" points="210.836,203.081 210.836,203.081 210.836,203.081 	"/>
	<polyline fill="#999999" points="77.872,145.628 77.872,145.628 77.872,145.628 	"/>
	<polyline fill="#999999" points="175.836,255.45 175.836,255.45 175.836,255.45 	"/>
	<polyline fill="#999999" points="262.036,173.933 262.036,173.933 262.036,173.933 	"/>
	<polyline fill="#999999" points="161.67,158.962 161.67,158.962 161.67,158.962 	"/>
	<polyline fill="#999999" points="129.979,138.613 129.979,138.613 129.979,138.613 	"/>
	<polyline fill="#999999" points="213.293,293.093 213.293,293.093 213.293,293.093 	"/>
	<polyline fill="#999999" points="325.091,104.058 325.091,104.058 325.091,104.058 	"/>
	<polyline fill="#999999" points="276.952,56.454 276.952,56.454 276.952,56.454 	"/>
	<polyline fill="#999999" points="184.657,152.542 184.657,152.542 184.657,152.542 	"/>
	<polyline fill="#999999" points="132.395,136.142 132.395,136.142 132.395,136.142 	"/>
	<polyline fill="#999999" points="93.667,186.14 93.667,186.14 93.667,186.14 	"/>
	<polyline fill="#999999" points="132.758,186.446 132.758,186.446 132.758,186.446 	"/>
	<polyline fill="#999999" points="133.739,73.504 133.739,73.504 133.739,73.504 	"/>
	<polyline fill="#999999" points="117.78,82.09 117.78,82.09 117.78,82.09 	"/>
	<polyline fill="#999999" points="166.751,251.793 166.751,251.793 166.751,251.793 	"/>
	<polyline fill="#999999" points="152.381,148.164 152.381,148.164 152.381,148.164 	"/>
	<polyline fill="#999999" points="59.437,139.388 59.437,139.388 59.437,139.388 	"/>
	<polyline fill="#999999" points="91.237,183.415 91.237,183.415 91.237,183.415 	"/>
	<polyline fill="#999999" points="153.555,47.684 153.555,47.684 153.555,47.684 	"/>
	<polyline fill="#999999" points="127.95,184.932 127.95,184.932 127.95,184.932 	"/>
	<polyline fill="#999999" points="180.635,27.494 180.635,27.494 180.635,27.494 	"/>
	<polyline fill="#999999" points="216.816,183.124 216.816,183.124 216.816,183.124 	"/>
	<polyline fill="#999999" points="164.747,156.61 164.747,156.61 164.747,156.61 	"/>
	<polyline fill="#999999" points="132.062,136.648 132.062,136.648 132.062,136.648 	"/>
	<polyline fill="#999999" points="288.271,224.479 288.271,224.479 288.271,224.479 	"/>
	<polyline fill="#999999" points="118.511,133.073 118.511,133.073 118.511,133.073 	"/>
	<polyline fill="#999999" points="188.883,159.439 188.883,159.439 188.883,159.439 	"/>
	<polyline fill="#999999" points="189.52,245.136 189.52,245.136 189.52,245.136 	"/>
	<polyline fill="#999999" points="92.301,194.948 92.301,194.948 92.301,194.948 	"/>
	<polyline fill="#999999" points="158.681,195.99 158.681,195.99 158.681,195.99 	"/>
	<polyline fill="#999999" points="180.758,280.33 180.758,280.33 180.758,280.33 	"/>
	<polyline fill="#999999" points="130.439,199.596 130.439,199.596 130.439,199.596 	"/>
	<polyline fill="#999999" points="272.936,53.781 272.936,53.781 272.936,53.781 	"/>
	<polyline fill="#999999" points="198.221,148.278 198.221,148.278 198.221,148.278 	"/>
	<polyline fill="#999999" points="178.7,58.312 178.7,58.312 178.7,58.312 	"/>
	<polyline fill="#999999" points="216.714,169.89 216.714,169.89 216.714,169.89 	"/>
	<polyline fill="#999999" points="123.762,76.824 123.762,76.824 123.762,76.824 	"/>
	<polyline fill="#999999" points="199.635,237.502 199.635,237.502 199.635,237.502 	"/>
	<polyline fill="#999999" points="133.376,131.105 133.376,131.105 133.376,131.105 	"/>
	<polyline fill="#999999" points="277.105,34.75 277.105,34.75 277.105,34.75 	"/>
	<polyline fill="#999999" points="267.809,67.813 267.809,67.813 267.809,67.813 	"/>
	<polyline fill="#999999" points="310.273,106.309 310.273,106.309 310.273,106.309 	"/>
	<polyline fill="#999999" points="188.656,103.839 188.656,103.839 188.656,103.839 	"/>
	<polyline fill="#999999" points="132.021,73.065 132.021,73.065 132.021,73.065 	"/>
	<polyline fill="#999999" points="152.164,155.509 152.164,155.509 152.164,155.509 	"/>
	<polyline fill="#999999" points="121.754,138.48 121.754,138.48 121.754,138.48 	"/>
	<polyline fill="#999999" points="120.749,191.917 120.749,191.917 120.749,191.917 	"/>
	<polyline fill="#999999" points="141.562,62.99 141.562,62.99 141.562,62.99 	"/>
	<polyline fill="#999999" points="272.346,28.05 272.346,28.05 272.346,28.05 	"/>
	<polyline fill="#999999" points="264.419,57.452 264.419,57.452 264.419,57.452 	"/>
	<polyline fill="#999999" points="191.266,23.073 191.266,23.073 191.266,23.073 	"/>
	<polyline fill="#999999" points="166.925,49.021 166.925,49.021 166.925,49.021 	"/>
	<polyline fill="#999999" points="178.416,95.69 178.416,95.69 178.416,95.69 	"/>
	<polyline fill="#999999" points="177.955,25.138 177.955,25.138 177.955,25.138 	"/>
	<polyline fill="#999999" points="160.336,159.372 160.336,159.372 160.336,159.372 	"/>
	<polyline fill="#999999" points="222.32,208.471 222.32,208.471 222.32,208.471 	"/>
	<polyline fill="#999999" points="134.564,196.445 134.564,196.445 134.564,196.445 	"/>
	<polyline fill="#999999" points="304.484,287.376 304.484,287.376 304.484,287.376 	"/>
	<polyline fill="#999999" points="199.381,251.632 199.381,251.632 199.381,251.632 	"/>
	<polyline fill="#999999" points="121.348,138.183 121.348,138.183 121.348,138.183 	"/>
	<polyline fill="#999999" points="81.695,194.896 81.695,194.896 81.695,194.896 	"/>
	<polyline fill="#999999" points="199.479,151.073 199.479,151.073 199.479,151.073 	"/>
	<polyline fill="#999999" points="166.273,151.3 166.273,151.3 166.273,151.3 	"/>
	<polyline fill="#999999" points="134.971,189.134 134.971,189.134 134.971,189.134 	"/>
	<polyline fill="#999999" points="206.721,199.867 206.721,199.867 206.721,199.867 	"/>
	<polyline fill="#999999" points="163.392,146.093 163.392,146.093 163.392,146.093 	"/>
	<polyline fill="#999999" points="132.31,128.271 132.31,128.271 132.31,128.271 	"/>
	<polyline fill="#999999" points="215.266,37.684 215.266,37.684 215.266,37.684 	"/>
	<polyline fill="#999999" points="223.523,138.177 223.523,138.177 223.523,138.177 	"/>
	<polyline fill="#999999" points="263.707,62.74 263.707,62.74 263.707,62.74 	"/>
	<polyline fill="#999999" points="110.465,234.329 110.465,234.329 110.465,234.329 	"/>
	<polyline fill="#999999" points="248.605,120.407 248.605,120.407 248.605,120.407 	"/>
	<polyline fill="#999999" points="322.843,305.829 322.843,305.829 322.843,305.829 	"/>
	<polyline fill="#999999" points="130.787,59.684 130.787,59.684 130.787,59.684 	"/>
	<polyline fill="#999999" points="162.641,255.205 162.641,255.205 162.641,255.205 	"/>
	<polyline fill="#999999" points="189.639,243.061 189.639,243.061 189.639,243.061 	"/>
	<polyline fill="#999999" points="91.403,195.708 91.403,195.708 91.403,195.708 	"/>
	<polyline fill="#999999" points="210.938,36.946 210.938,36.946 210.938,36.946 	"/>
	<polyline fill="#999999" points="68.09,217.313 68.09,217.313 68.09,217.313 	"/>
	<polyline fill="#999999" points="86.424,268.661 86.424,268.661 86.424,268.661 	"/>
	<polyline fill="#999999" points="212.166,112.944 212.166,112.944 212.166,112.944 	"/>
	<polyline fill="#999999" points="48.436,188.658 48.436,188.658 48.436,188.658 	"/>
	<polyline fill="#999999" points="197.15,208.736 197.15,208.736 197.15,208.736 	"/>
	<polyline fill="#999999" points="202.664,249.432 202.664,249.432 202.664,249.432 	"/>
	<polyline fill="#999999" points="206.566,214.21 206.566,214.21 206.566,214.21 	"/>
	<polyline fill="#999999" points="187.204,158.324 187.204,158.324 187.204,158.324 	"/>
	<polyline fill="#999999" points="205.928,178.221 205.928,178.221 205.928,178.221 	"/>
	<polyline fill="#999999" points="192.889,238.245 192.889,238.245 192.889,238.245 	"/>
	<polyline fill="#999999" points="129.882,138.674 129.882,138.674 129.882,138.674 	"/>
	<polyline fill="#999999" points="58.826,143.247 58.826,143.247 58.826,143.247 	"/>
	<polyline fill="#999999" points="147.387,241.466 147.387,241.466 147.387,241.466 	"/>
	<polyline fill="#999999" points="94.523,189.527 94.523,189.527 94.523,189.527 	"/>
	<polyline fill="#999999" points="156.114,48.049 156.114,48.049 156.114,48.049 	"/>
	<polyline fill="#999999" points="120.444,223.284 120.444,223.284 120.444,223.284 	"/>
	<polyline fill="#999999" points="184.4,278.096 184.4,278.096 184.4,278.096 	"/>
	<polyline fill="#999999" points="266.102,66.701 266.102,66.701 266.102,66.701 	"/>
	<polyline fill="#999999" points="179.495,109.923 179.495,109.923 179.495,109.923 	"/>
	<polyline fill="#999999" points="92.423,194.824 92.423,194.824 92.423,194.824 	"/>
	<polyline fill="#999999" points="291.697,282.275 291.697,282.275 291.697,282.275 	"/>
	<polyline fill="#999999" points="215.23,269.605 215.23,269.605 215.23,269.605 	"/>
	<polyline fill="#999999" points="267.391,160.922 267.391,160.922 267.391,160.922 	"/>
	<polyline fill="#999999" points="307.042,33.283 307.042,33.283 307.042,33.283 	"/>
	<polyline fill="#999999" points="277.916,35.016 277.916,35.016 277.916,35.016 	"/>
	<polyline fill="#999999" points="220.896,33.824 220.896,33.824 220.896,33.824 	"/>
	<polyline fill="#999999" points="190.912,23.992 190.912,23.992 190.912,23.992 	"/>
	<polyline fill="#999999" points="57.642,135.267 57.642,135.267 57.642,135.267 	"/>
	<polyline fill="#999999" points="87.391,182.128 87.391,182.128 87.391,182.128 	"/>
	<polyline fill="#999999" points="209.507,107.155 209.507,107.155 209.507,107.155 	"/>
	<polyline fill="#999999" points="119.12,135.334 119.12,135.334 119.12,135.334 	"/>
	<polyline fill="#999999" points="50.633,147.563 50.633,147.563 50.633,147.563 	"/>
	<polyline fill="#999999" points="80.455,185.999 80.455,185.999 80.455,185.999 	"/>
	<polyline fill="#999999" points="121.061,190.23 121.061,190.23 121.061,190.23 	"/>
	<polyline fill="#999999" points="199.176,150.053 199.176,150.053 199.176,150.053 	"/>
	<polyline fill="#999999" points="355.762,98.049 355.762,98.049 355.762,98.049 	"/>
	<polyline fill="#999999" points="133.199,130.285 133.199,130.285 133.199,130.285 	"/>
	<polyline fill="#999999" points="228.65,199.188 228.65,199.188 228.65,199.188 	"/>
	<polyline fill="#999999" points="239.021,111.739 239.021,111.739 239.021,111.739 	"/>
	<polyline fill="#999999" points="219.205,80.49 219.205,80.49 219.205,80.49 	"/>
	<polyline fill="#999999" points="265.311,65.905 265.311,65.905 265.311,65.905 	"/>
	<polyline fill="#999999" points="310.23,105.627 310.23,105.627 310.23,105.627 	"/>
	<polyline fill="#999999" points="185.786,156.65 185.786,156.65 185.786,156.65 	"/>
	<polyline fill="#999999" points="154.282,158.01 154.282,158.01 154.282,158.01 	"/>
	<polyline fill="#999999" points="126.25,139.771 126.25,139.771 126.25,139.771 	"/>
	<polyline fill="#999999" points="94.506,190.129 94.506,190.129 94.506,190.129 	"/>
	<polyline fill="#999999" points="119.61,136.254 119.61,136.254 119.61,136.254 	"/>
	<polyline fill="#999999" points="50.342,147.504 50.342,147.504 50.342,147.504 	"/>
	<polyline fill="#999999" points="196.168,237.066 196.168,237.066 196.168,237.066 	"/>
	<polyline fill="#999999" points="132.578,128.731 132.578,128.731 132.578,128.731 	"/>
	<polyline fill="#999999" points="238.964,112.042 238.964,112.042 238.964,112.042 	"/>
	<polyline fill="#999999" points="158.718,47.496 158.718,47.496 158.718,47.496 	"/>
	<polyline fill="#999999" points="218.667,140.341 218.667,140.341 218.667,140.341 	"/>
	<polyline fill="#999999" points="162.247,181.42 162.247,181.42 162.247,181.42 	"/>
	<polyline fill="#999999" points="264.205,64.184 264.205,64.184 264.205,64.184 	"/>
	<polyline fill="#999999" points="98.613,105.889 98.613,105.889 98.613,105.889 	"/>
	<polyline fill="#999999" points="209.568,106.263 209.568,106.263 209.568,106.263 	"/>
	<polyline fill="#999999" points="260.73,172.35 260.73,172.35 260.73,172.35 	"/>
	<polyline fill="#999999" points="163.599,157.8 163.599,157.8 163.599,157.8 	"/>
	<polyline fill="#999999" points="131.399,137.448 131.399,137.448 131.399,137.448 	"/>
	<polyline fill="#999999" points="135.598,193.836 135.598,193.836 135.598,193.836 	"/>
	<polyline fill="#999999" points="160.229,144.665 160.229,144.665 160.229,144.665 	"/>
	<polyline fill="#999999" points="207.145,28.016 207.145,28.016 207.145,28.016 	"/>
	<polyline fill="#999999" points="162.03,36.259 162.03,36.259 162.03,36.259 	"/>
	<polyline fill="#999999" points="165.841,154.635 165.841,154.635 165.841,154.635 	"/>
	<polyline fill="#999999" points="290.855,220.732 290.855,220.732 290.855,220.732 	"/>
	<polyline fill="#999999" points="135.731,192.457 135.731,192.457 135.731,192.457 	"/>
	<polyline fill="#999999" points="276.507,151.53 276.507,151.53 276.507,151.53 	"/>
	<polyline fill="#999999" points="133.445,132.86 133.445,132.86 133.445,132.86 	"/>
	<polyline fill="#999999" points="231.445,145.452 231.445,145.452 231.445,145.452 	"/>
	<polyline fill="#999999" points="271.618,68.505 271.618,68.505 271.618,68.505 	"/>
	<polyline fill="#999999" points="270.65,185.609 270.65,185.609 270.65,185.609 	"/>
</g>
<g id="nodes">
	<circle fill="#C0C0C0" stroke="#000000" stroke-width="0.75" cx="192.156" cy="152.691" r="7"/>
	<circle fill="#C0C0C0" stroke="#000000" stroke-width="0.75" cx="172.877" cy="53.585" r="7"/>
	<circle fill="#C0C0C0" stroke="#000000" stroke-width="0.75" cx="213.236" cy="176.534" r="7"/>
	<circle fill="#C0C0C0" stroke="#000000" stroke-width="0.75" cx="85.204" cy="147.205" r="7"/>
	<circle fill="#C0C0C0" stroke="#000000" stroke-width="0.75" cx="134.722" cy="66.068" r="7"/>
	<circle fill="#C0C0C0" stroke="#000000" stroke-width="0.75" cx="116.572" cy="74.688" r="7"/>
	<circle fill="#C0C0C0" stroke="#000000" stroke-width="0.75" cx="169.173" cy="258.893" r="7"/>
	<circle fill="#C0C0C0" stroke="#000000" stroke-width="0.75" cx="361.917" cy="236.359" r="7"/>
	<circle fill="#C0C0C0" stroke="#000000" stroke-width="0.75" cx="267.118" cy="168.417" r="7"/>
	<circle fill="#C0C0C0" stroke="#000000" stroke-width="0.75" cx="25.146" cy="134.29" r="7"/>
	<circle fill="#C0C0C0" stroke="#000000" stroke-width="0.75" cx="196.994" cy="244.521" r="7"/>
	<circle fill="#C0C0C0" stroke="#000000" stroke-width="0.75" cx="363.122" cy="96.606" r="7"/>
	<circle fill="#C0C0C0" stroke="#000000" stroke-width="0.75" cx="312.984" cy="28.708" r="7"/>
	<circle fill="#C0C0C0" stroke="#000000" stroke-width="0.75" cx="158.808" cy="152.029" r="7"/>
	<circle fill="#C0C0C0" stroke="#000000" stroke-width="0.75" cx="125.968" cy="132.276" r="7"/>
	<circle fill="#C0C0C0" stroke="#000000" stroke-width="0.75" cx="229.593" cy="206.629" r="7"/>
	<circle fill="#C0C0C0" stroke="#000000" stroke-width="0.75" cx="51.979" cy="140.186" r="7"/>
	<circle fill="#C0C0C0" stroke="#000000" stroke-width="0.75" cx="145.579" cy="248.745" r="7"/>
	<circle fill="#C0C0C0" stroke="#000000" stroke-width="0.75" cx="295.447" cy="226.663" r="7"/>
	<circle fill="#C0C0C0" stroke="#000000" stroke-width="0.75" cx="383" cy="206.534" r="7"/>
	<circle fill="#C0C0C0" stroke="#000000" stroke-width="0.75" cx="279.841" cy="27.767" r="7"/>
	<circle fill="#C0C0C0" stroke="#000000" stroke-width="0.75" cx="246.366" cy="113.249" r="7"/>
	<circle fill="#C0C0C0" stroke="#000000" stroke-width="0.75" cx="87.023" cy="189.62" r="7"/>
	<circle fill="#C0C0C0" stroke="#000000" stroke-width="0.75" cx="214.307" cy="30.245" r="7"/>
	<circle fill="#C0C0C0" stroke="#000000" stroke-width="0.75" cx="155.88" cy="40.553" r="7"/>
	<circle fill="#C0C0C0" stroke="#000000" stroke-width="0.75" cx="173.142" cy="220.93" r="7"/>
	<circle fill="#C0C0C0" stroke="#000000" stroke-width="0.75" cx="328.132" cy="311.146" r="7"/>
	<circle fill="#C0C0C0" stroke="#000000" stroke-width="0.75" cx="215.68" cy="300.203" r="7"/>
	<circle fill="#C0C0C0" stroke="#000000" stroke-width="0.75" cx="60.785" cy="215.611" r="7"/>
	<circle fill="#C0C0C0" stroke="#000000" stroke-width="0.75" cx="223.949" cy="145.665" r="7"/>
	<circle fill="#C0C0C0" stroke="#000000" stroke-width="0.75" cx="219.818" cy="73.016" r="7"/>
	<circle fill="#C0C0C0" stroke="#000000" stroke-width="0.75" cx="82.122" cy="274.805" r="7"/>
	<circle fill="#C0C0C0" stroke="#000000" stroke-width="0.75" cx="299.195" cy="282.059" r="7"/>
	<circle fill="#C0C0C0" stroke="#000000" stroke-width="0.75" cx="317.952" cy="363.611" r="7"/>
	<circle fill="#C0C0C0" stroke="#000000" stroke-width="0.75" cx="98.935" cy="8" r="7"/>
	<circle fill="#C0C0C0" stroke="#000000" stroke-width="0.75" cx="114.768" cy="228.188" r="7"/>
	<circle fill="#C0C0C0" stroke="#000000" stroke-width="0.75" cx="221.816" cy="266.02" r="7"/>
	<circle fill="#C0C0C0" stroke="#000000" stroke-width="0.75" cx="160.488" cy="188.711" r="7"/>
	<circle fill="#C0C0C0" stroke="#000000" stroke-width="0.75" cx="186.339" cy="285.341" r="7"/>
	<circle fill="#C0C0C0" stroke="#000000" stroke-width="0.75" cx="7.75" cy="77.549" r="7"/>
	<circle fill="#C0C0C0" stroke="#000000" stroke-width="0.75" cx="271.01" cy="61.03" r="7"/>
	<circle fill="#C0C0C0" stroke="#000000" stroke-width="0.75" cx="91.119" cy="106.184" r="7"/>
	<circle fill="#C0C0C0" stroke="#000000" stroke-width="0.75" cx="46.985" cy="167.55" r="7"/>
	<circle fill="#C0C0C0" stroke="#000000" stroke-width="0.75" cx="317.73" cy="105.5" r="7"/>
	<circle fill="#C0C0C0" stroke="#000000" stroke-width="0.75" cx="217.007" cy="107.216" r="7"/>
	<circle fill="#C0C0C0" stroke="#000000" stroke-width="0.75" cx="128.232" cy="192.427" r="7"/>
	<circle fill="#C0C0C0" stroke="#000000" stroke-width="0.75" cx="41.993" cy="184.818" r="7"/>
	<circle fill="#C0C0C0" stroke="#000000" stroke-width="0.75" cx="128.144" cy="379.437" r="7"/>
	<circle fill="#C0C0C0" stroke="#000000" stroke-width="0.75" cx="181.253" cy="102.632" r="7"/>
	<circle fill="#C0C0C0" stroke="#000000" stroke-width="0.75" cx="204.449" cy="207.016" r="7"/>
	<circle fill="#C0C0C0" stroke="#000000" stroke-width="0.75" cx="184.104" cy="20.844" r="7"/>
	<circle fill="#C0C0C0" stroke="#000000" stroke-width="0.75" cx="269.38" cy="193.001" r="7"/>
	<circle fill="#C0C0C0" stroke="#000000" stroke-width="0.75" cx="277.777" cy="144.139" r="7"/>
</g>
</svg>
